<svg width="208" height="28" viewBox="0 0 208 28" fill="none" xmlns="http://www.w3.org/2000/svg">
<mask id="path-1-outside-1_92376_547" maskUnits="userSpaceOnUse" x="0" y="0" width="183" height="28" fill="black">
<rect fill="white" width="183" height="28"/>
<path d="M1 26.0351V1.22554H5.96191V21.8062H11.0648V26.0351H1Z"/>
<path d="M12.4744 26.0351V1.22554H22.3982V6.0183H17.5209V10.8533H22.2009V15.5192H17.5209V21.2001H22.7225V26.0351H12.4744Z"/>
<path d="M30.264 26.2606C27.9992 26.2606 26.364 25.6968 25.3585 24.5691C24.3623 23.4414 23.8643 21.6464 23.8643 19.1843V16.7597H28.7698V19.8609C28.7698 20.4341 28.8544 20.8852 29.0235 21.2141C29.2021 21.5337 29.5075 21.6934 29.9398 21.6934C30.3909 21.6934 30.701 21.5619 30.8701 21.2987C31.0487 21.0356 31.138 20.6033 31.138 20.0019C31.138 19.2407 31.0628 18.6063 30.9124 18.0989C30.7621 17.582 30.4989 17.0933 30.123 16.6328C29.7565 16.163 29.2444 15.6179 28.5865 14.9977L26.3593 12.8832C24.6959 11.3138 23.8643 9.51889 23.8643 7.49841C23.8643 5.38396 24.3529 3.77228 25.3303 2.66337C26.317 1.55446 27.7407 1 29.6015 1C31.8757 1 33.4874 1.60614 34.4365 2.81843C35.3951 4.03071 35.8743 5.87263 35.8743 8.34419H30.8278V6.63853C30.8278 6.30022 30.7292 6.03709 30.5318 5.84914C30.3439 5.66119 30.0854 5.56721 29.7565 5.56721C29.3618 5.56721 29.0705 5.67998 28.8826 5.90553C28.704 6.12167 28.6147 6.4036 28.6147 6.75131C28.6147 7.09902 28.7087 7.47492 28.8966 7.87901C29.0846 8.28311 29.4558 8.74829 30.0103 9.27455L32.8718 12.0233C33.4451 12.5684 33.9713 13.1463 34.4506 13.7572C34.9299 14.3586 35.3152 15.0634 35.6065 15.8716C35.8978 16.6704 36.0435 17.6478 36.0435 18.8037C36.0435 21.1343 35.6112 22.9621 34.7466 24.2871C33.8914 25.6028 32.3972 26.2606 30.264 26.2606Z"/>
<path d="M44.4731 26.0351V1.22554H51.0279C52.3999 1.22554 53.4854 1.53096 54.2841 2.1418C55.0923 2.75264 55.6703 3.62192 56.018 4.74963C56.3657 5.87733 56.5396 7.22118 56.5396 8.78118C56.5396 10.2848 56.3939 11.5957 56.1026 12.7141C55.8112 13.823 55.2897 14.6828 54.5379 15.2937C53.7955 15.9045 52.7383 16.2099 51.3662 16.2099H49.3504V26.0351H44.4731ZM49.3504 11.7555H49.6324C50.5533 11.7555 51.1172 11.4971 51.3239 10.9802C51.5307 10.4633 51.634 9.70214 51.634 8.6966C51.634 7.75684 51.5307 7.03323 51.3239 6.52576C51.1266 6.0089 50.652 5.75047 49.9002 5.75047H49.3504V11.7555Z"/>
<path d="M58.1184 26.0351V1.22554H68.0422V6.0183H63.1648V10.8533H67.8448V15.5192H63.1648V21.2001H68.3664V26.0351H58.1184Z"/>
<path d="M72.1442 26.0351V5.9901H69.1981V1.22554H80.0522V5.9901H77.1061V26.0351H72.1442Z"/>
<path d="M81.2081 26.0351V1.22554H86.0009V26.0351H81.2081Z"/>
<path d="M90.1029 26.0351V5.9901H87.1568V1.22554H98.011V5.9901H95.0648V26.0351H90.1029Z"/>
<path d="M105.285 26.2606C103.02 26.2606 101.385 25.6968 100.379 24.5691C99.383 23.4414 98.8849 21.6464 98.8849 19.1843V16.7597H103.79V19.8609C103.79 20.4341 103.875 20.8852 104.044 21.2141C104.223 21.5337 104.528 21.6934 104.96 21.6934C105.412 21.6934 105.722 21.5619 105.891 21.2987C106.069 21.0356 106.159 20.6033 106.159 20.0019C106.159 19.2407 106.083 18.6063 105.933 18.0989C105.783 17.582 105.52 17.0933 105.144 16.6328C104.777 16.163 104.265 15.6179 103.607 14.9977L101.38 12.8832C99.7166 11.3138 98.8849 9.51889 98.8849 7.49841C98.8849 5.38396 99.3736 3.77228 100.351 2.66337C101.338 1.55446 102.761 1 104.622 1C106.896 1 108.508 1.60614 109.457 2.81843C110.416 4.03071 110.895 5.87263 110.895 8.34419H105.849V6.63853C105.849 6.30022 105.75 6.03709 105.553 5.84914C105.365 5.66119 105.106 5.56721 104.777 5.56721C104.383 5.56721 104.091 5.67998 103.903 5.90553C103.725 6.12167 103.635 6.4036 103.635 6.75131C103.635 7.09902 103.729 7.47492 103.917 7.87901C104.105 8.28311 104.476 8.74829 105.031 9.27455L107.893 12.0233C108.466 12.5684 108.992 13.1463 109.471 13.7572C109.951 14.3586 110.336 15.0634 110.627 15.8716C110.919 16.6704 111.064 17.6478 111.064 18.8037C111.064 21.1343 110.632 22.9621 109.767 24.2871C108.912 25.6028 107.418 26.2606 105.285 26.2606Z"/>
<path d="M119.494 26.0351V1.22554H126.049C127.421 1.22554 128.506 1.53096 129.305 2.1418C130.113 2.75264 130.691 3.62192 131.039 4.74963C131.386 5.87733 131.56 7.22118 131.56 8.78118C131.56 10.2848 131.415 11.5957 131.123 12.7141C130.832 13.823 130.31 14.6828 129.559 15.2937C128.816 15.9045 127.759 16.2099 126.387 16.2099H124.371V26.0351H119.494ZM124.371 11.7555H124.653C125.574 11.7555 126.138 11.4971 126.345 10.9802C126.551 10.4633 126.655 9.70214 126.655 8.6966C126.655 7.75684 126.551 7.03323 126.345 6.52576C126.147 6.0089 125.673 5.75047 124.921 5.75047H124.371V11.7555Z"/>
<path d="M133.139 26.0351V1.22554H138.101V21.8062H143.204V26.0351H133.139Z"/>
<path d="M143.937 26.0351L146.333 1.22554H154.749L157.103 26.0351H152.409L152.056 22.0317H149.068L148.758 26.0351H143.937ZM149.42 18.0707H151.676L150.59 5.45444H150.365L149.42 18.0707Z"/>
<path d="M160.387 26.0351V5.9901H157.441V1.22554H168.295V5.9901H165.349V26.0351H160.387Z"/>
<path d="M175.569 26.2606C173.304 26.2606 171.669 25.6968 170.663 24.5691C169.667 23.4414 169.169 21.6464 169.169 19.1843V16.7597H174.075V19.8609C174.075 20.4341 174.159 20.8852 174.329 21.2141C174.507 21.5337 174.813 21.6934 175.245 21.6934C175.696 21.6934 176.006 21.5619 176.175 21.2987C176.354 21.0356 176.443 20.6033 176.443 20.0019C176.443 19.2407 176.368 18.6063 176.217 18.0989C176.067 17.582 175.804 17.0933 175.428 16.6328C175.062 16.163 174.549 15.6179 173.892 14.9977L171.664 12.8832C170.001 11.3138 169.169 9.51889 169.169 7.49841C169.169 5.38396 169.658 3.77228 170.635 2.66337C171.622 1.55446 173.046 1 174.906 1C177.181 1 178.792 1.60614 179.742 2.81843C180.7 4.03071 181.179 5.87263 181.179 8.34419H176.133V6.63853C176.133 6.30022 176.034 6.03709 175.837 5.84914C175.649 5.66119 175.39 5.56721 175.062 5.56721C174.667 5.56721 174.376 5.67998 174.188 5.90553C174.009 6.12167 173.92 6.4036 173.92 6.75131C173.92 7.09902 174.014 7.47492 174.202 7.87901C174.39 8.28311 174.761 8.74829 175.315 9.27455L178.177 12.0233C178.75 12.5684 179.276 13.1463 179.756 13.7572C180.235 14.3586 180.62 15.0634 180.912 15.8716C181.203 16.6704 181.349 17.6478 181.349 18.8037C181.349 21.1343 180.916 22.9621 180.052 24.2871C179.196 25.6028 177.702 26.2606 175.569 26.2606Z"/>
</mask>
<path d="M1 26.0351V1.22554H5.96191V21.8062H11.0648V26.0351H1Z" fill="white"/>
<path d="M12.4744 26.0351V1.22554H22.3982V6.0183H17.5209V10.8533H22.2009V15.5192H17.5209V21.2001H22.7225V26.0351H12.4744Z" fill="white"/>
<path d="M30.264 26.2606C27.9992 26.2606 26.364 25.6968 25.3585 24.5691C24.3623 23.4414 23.8643 21.6464 23.8643 19.1843V16.7597H28.7698V19.8609C28.7698 20.4341 28.8544 20.8852 29.0235 21.2141C29.2021 21.5337 29.5075 21.6934 29.9398 21.6934C30.3909 21.6934 30.701 21.5619 30.8701 21.2987C31.0487 21.0356 31.138 20.6033 31.138 20.0019C31.138 19.2407 31.0628 18.6063 30.9124 18.0989C30.7621 17.582 30.4989 17.0933 30.123 16.6328C29.7565 16.163 29.2444 15.6179 28.5865 14.9977L26.3593 12.8832C24.6959 11.3138 23.8643 9.51889 23.8643 7.49841C23.8643 5.38396 24.3529 3.77228 25.3303 2.66337C26.317 1.55446 27.7407 1 29.6015 1C31.8757 1 33.4874 1.60614 34.4365 2.81843C35.3951 4.03071 35.8743 5.87263 35.8743 8.34419H30.8278V6.63853C30.8278 6.30022 30.7292 6.03709 30.5318 5.84914C30.3439 5.66119 30.0854 5.56721 29.7565 5.56721C29.3618 5.56721 29.0705 5.67998 28.8826 5.90553C28.704 6.12167 28.6147 6.4036 28.6147 6.75131C28.6147 7.09902 28.7087 7.47492 28.8966 7.87901C29.0846 8.28311 29.4558 8.74829 30.0103 9.27455L32.8718 12.0233C33.4451 12.5684 33.9713 13.1463 34.4506 13.7572C34.9299 14.3586 35.3152 15.0634 35.6065 15.8716C35.8978 16.6704 36.0435 17.6478 36.0435 18.8037C36.0435 21.1343 35.6112 22.9621 34.7466 24.2871C33.8914 25.6028 32.3972 26.2606 30.264 26.2606Z" fill="white"/>
<path d="M44.4731 26.0351V1.22554H51.0279C52.3999 1.22554 53.4854 1.53096 54.2841 2.1418C55.0923 2.75264 55.6703 3.62192 56.018 4.74963C56.3657 5.87733 56.5396 7.22118 56.5396 8.78118C56.5396 10.2848 56.3939 11.5957 56.1026 12.7141C55.8112 13.823 55.2897 14.6828 54.5379 15.2937C53.7955 15.9045 52.7383 16.2099 51.3662 16.2099H49.3504V26.0351H44.4731ZM49.3504 11.7555H49.6324C50.5533 11.7555 51.1172 11.4971 51.3239 10.9802C51.5307 10.4633 51.634 9.70214 51.634 8.6966C51.634 7.75684 51.5307 7.03323 51.3239 6.52576C51.1266 6.0089 50.652 5.75047 49.9002 5.75047H49.3504V11.7555Z" fill="white"/>
<path d="M58.1184 26.0351V1.22554H68.0422V6.0183H63.1648V10.8533H67.8448V15.5192H63.1648V21.2001H68.3664V26.0351H58.1184Z" fill="white"/>
<path d="M72.1442 26.0351V5.9901H69.1981V1.22554H80.0522V5.9901H77.1061V26.0351H72.1442Z" fill="white"/>
<path d="M81.2081 26.0351V1.22554H86.0009V26.0351H81.2081Z" fill="white"/>
<path d="M90.1029 26.0351V5.9901H87.1568V1.22554H98.011V5.9901H95.0648V26.0351H90.1029Z" fill="white"/>
<path d="M105.285 26.2606C103.02 26.2606 101.385 25.6968 100.379 24.5691C99.383 23.4414 98.8849 21.6464 98.8849 19.1843V16.7597H103.79V19.8609C103.79 20.4341 103.875 20.8852 104.044 21.2141C104.223 21.5337 104.528 21.6934 104.96 21.6934C105.412 21.6934 105.722 21.5619 105.891 21.2987C106.069 21.0356 106.159 20.6033 106.159 20.0019C106.159 19.2407 106.083 18.6063 105.933 18.0989C105.783 17.582 105.52 17.0933 105.144 16.6328C104.777 16.163 104.265 15.6179 103.607 14.9977L101.38 12.8832C99.7166 11.3138 98.8849 9.51889 98.8849 7.49841C98.8849 5.38396 99.3736 3.77228 100.351 2.66337C101.338 1.55446 102.761 1 104.622 1C106.896 1 108.508 1.60614 109.457 2.81843C110.416 4.03071 110.895 5.87263 110.895 8.34419H105.849V6.63853C105.849 6.30022 105.75 6.03709 105.553 5.84914C105.365 5.66119 105.106 5.56721 104.777 5.56721C104.383 5.56721 104.091 5.67998 103.903 5.90553C103.725 6.12167 103.635 6.4036 103.635 6.75131C103.635 7.09902 103.729 7.47492 103.917 7.87901C104.105 8.28311 104.476 8.74829 105.031 9.27455L107.893 12.0233C108.466 12.5684 108.992 13.1463 109.471 13.7572C109.951 14.3586 110.336 15.0634 110.627 15.8716C110.919 16.6704 111.064 17.6478 111.064 18.8037C111.064 21.1343 110.632 22.9621 109.767 24.2871C108.912 25.6028 107.418 26.2606 105.285 26.2606Z" fill="white"/>
<path d="M119.494 26.0351V1.22554H126.049C127.421 1.22554 128.506 1.53096 129.305 2.1418C130.113 2.75264 130.691 3.62192 131.039 4.74963C131.386 5.87733 131.56 7.22118 131.56 8.78118C131.56 10.2848 131.415 11.5957 131.123 12.7141C130.832 13.823 130.31 14.6828 129.559 15.2937C128.816 15.9045 127.759 16.2099 126.387 16.2099H124.371V26.0351H119.494ZM124.371 11.7555H124.653C125.574 11.7555 126.138 11.4971 126.345 10.9802C126.551 10.4633 126.655 9.70214 126.655 8.6966C126.655 7.75684 126.551 7.03323 126.345 6.52576C126.147 6.0089 125.673 5.75047 124.921 5.75047H124.371V11.7555Z" fill="white"/>
<path d="M133.139 26.0351V1.22554H138.101V21.8062H143.204V26.0351H133.139Z" fill="white"/>
<path d="M143.937 26.0351L146.333 1.22554H154.749L157.103 26.0351H152.409L152.056 22.0317H149.068L148.758 26.0351H143.937ZM149.42 18.0707H151.676L150.59 5.45444H150.365L149.42 18.0707Z" fill="white"/>
<path d="M160.387 26.0351V5.9901H157.441V1.22554H168.295V5.9901H165.349V26.0351H160.387Z" fill="white"/>
<path d="M175.569 26.2606C173.304 26.2606 171.669 25.6968 170.663 24.5691C169.667 23.4414 169.169 21.6464 169.169 19.1843V16.7597H174.075V19.8609C174.075 20.4341 174.159 20.8852 174.329 21.2141C174.507 21.5337 174.813 21.6934 175.245 21.6934C175.696 21.6934 176.006 21.5619 176.175 21.2987C176.354 21.0356 176.443 20.6033 176.443 20.0019C176.443 19.2407 176.368 18.6063 176.217 18.0989C176.067 17.582 175.804 17.0933 175.428 16.6328C175.062 16.163 174.549 15.6179 173.892 14.9977L171.664 12.8832C170.001 11.3138 169.169 9.51889 169.169 7.49841C169.169 5.38396 169.658 3.77228 170.635 2.66337C171.622 1.55446 173.046 1 174.906 1C177.181 1 178.792 1.60614 179.742 2.81843C180.7 4.03071 181.179 5.87263 181.179 8.34419H176.133V6.63853C176.133 6.30022 176.034 6.03709 175.837 5.84914C175.649 5.66119 175.39 5.56721 175.062 5.56721C174.667 5.56721 174.376 5.67998 174.188 5.90553C174.009 6.12167 173.92 6.4036 173.92 6.75131C173.92 7.09902 174.014 7.47492 174.202 7.87901C174.39 8.28311 174.761 8.74829 175.315 9.27455L178.177 12.0233C178.75 12.5684 179.276 13.1463 179.756 13.7572C180.235 14.3586 180.62 15.0634 180.912 15.8716C181.203 16.6704 181.349 17.6478 181.349 18.8037C181.349 21.1343 180.916 22.9621 180.052 24.2871C179.196 25.6028 177.702 26.2606 175.569 26.2606Z" fill="white"/>
<path d="M1 26.0351V1.22554H5.96191V21.8062H11.0648V26.0351H1Z" stroke="black" stroke-width="2" mask="url(#path-1-outside-1_92376_547)"/>
<path d="M12.4744 26.0351V1.22554H22.3982V6.0183H17.5209V10.8533H22.2009V15.5192H17.5209V21.2001H22.7225V26.0351H12.4744Z" stroke="black" stroke-width="2" mask="url(#path-1-outside-1_92376_547)"/>
<path d="M30.264 26.2606C27.9992 26.2606 26.364 25.6968 25.3585 24.5691C24.3623 23.4414 23.8643 21.6464 23.8643 19.1843V16.7597H28.7698V19.8609C28.7698 20.4341 28.8544 20.8852 29.0235 21.2141C29.2021 21.5337 29.5075 21.6934 29.9398 21.6934C30.3909 21.6934 30.701 21.5619 30.8701 21.2987C31.0487 21.0356 31.138 20.6033 31.138 20.0019C31.138 19.2407 31.0628 18.6063 30.9124 18.0989C30.7621 17.582 30.4989 17.0933 30.123 16.6328C29.7565 16.163 29.2444 15.6179 28.5865 14.9977L26.3593 12.8832C24.6959 11.3138 23.8643 9.51889 23.8643 7.49841C23.8643 5.38396 24.3529 3.77228 25.3303 2.66337C26.317 1.55446 27.7407 1 29.6015 1C31.8757 1 33.4874 1.60614 34.4365 2.81843C35.3951 4.03071 35.8743 5.87263 35.8743 8.34419H30.8278V6.63853C30.8278 6.30022 30.7292 6.03709 30.5318 5.84914C30.3439 5.66119 30.0854 5.56721 29.7565 5.56721C29.3618 5.56721 29.0705 5.67998 28.8826 5.90553C28.704 6.12167 28.6147 6.4036 28.6147 6.75131C28.6147 7.09902 28.7087 7.47492 28.8966 7.87901C29.0846 8.28311 29.4558 8.74829 30.0103 9.27455L32.8718 12.0233C33.4451 12.5684 33.9713 13.1463 34.4506 13.7572C34.9299 14.3586 35.3152 15.0634 35.6065 15.8716C35.8978 16.6704 36.0435 17.6478 36.0435 18.8037C36.0435 21.1343 35.6112 22.9621 34.7466 24.2871C33.8914 25.6028 32.3972 26.2606 30.264 26.2606Z" stroke="black" stroke-width="2" mask="url(#path-1-outside-1_92376_547)"/>
<path d="M44.4731 26.0351V1.22554H51.0279C52.3999 1.22554 53.4854 1.53096 54.2841 2.1418C55.0923 2.75264 55.6703 3.62192 56.018 4.74963C56.3657 5.87733 56.5396 7.22118 56.5396 8.78118C56.5396 10.2848 56.3939 11.5957 56.1026 12.7141C55.8112 13.823 55.2897 14.6828 54.5379 15.2937C53.7955 15.9045 52.7383 16.2099 51.3662 16.2099H49.3504V26.0351H44.4731ZM49.3504 11.7555H49.6324C50.5533 11.7555 51.1172 11.4971 51.3239 10.9802C51.5307 10.4633 51.634 9.70214 51.634 8.6966C51.634 7.75684 51.5307 7.03323 51.3239 6.52576C51.1266 6.0089 50.652 5.75047 49.9002 5.75047H49.3504V11.7555Z" stroke="black" stroke-width="2" mask="url(#path-1-outside-1_92376_547)"/>
<path d="M58.1184 26.0351V1.22554H68.0422V6.0183H63.1648V10.8533H67.8448V15.5192H63.1648V21.2001H68.3664V26.0351H58.1184Z" stroke="black" stroke-width="2" mask="url(#path-1-outside-1_92376_547)"/>
<path d="M72.1442 26.0351V5.9901H69.1981V1.22554H80.0522V5.9901H77.1061V26.0351H72.1442Z" stroke="black" stroke-width="2" mask="url(#path-1-outside-1_92376_547)"/>
<path d="M81.2081 26.0351V1.22554H86.0009V26.0351H81.2081Z" stroke="black" stroke-width="2" mask="url(#path-1-outside-1_92376_547)"/>
<path d="M90.1029 26.0351V5.9901H87.1568V1.22554H98.011V5.9901H95.0648V26.0351H90.1029Z" stroke="black" stroke-width="2" mask="url(#path-1-outside-1_92376_547)"/>
<path d="M105.285 26.2606C103.02 26.2606 101.385 25.6968 100.379 24.5691C99.383 23.4414 98.8849 21.6464 98.8849 19.1843V16.7597H103.79V19.8609C103.79 20.4341 103.875 20.8852 104.044 21.2141C104.223 21.5337 104.528 21.6934 104.96 21.6934C105.412 21.6934 105.722 21.5619 105.891 21.2987C106.069 21.0356 106.159 20.6033 106.159 20.0019C106.159 19.2407 106.083 18.6063 105.933 18.0989C105.783 17.582 105.52 17.0933 105.144 16.6328C104.777 16.163 104.265 15.6179 103.607 14.9977L101.38 12.8832C99.7166 11.3138 98.8849 9.51889 98.8849 7.49841C98.8849 5.38396 99.3736 3.77228 100.351 2.66337C101.338 1.55446 102.761 1 104.622 1C106.896 1 108.508 1.60614 109.457 2.81843C110.416 4.03071 110.895 5.87263 110.895 8.34419H105.849V6.63853C105.849 6.30022 105.75 6.03709 105.553 5.84914C105.365 5.66119 105.106 5.56721 104.777 5.56721C104.383 5.56721 104.091 5.67998 103.903 5.90553C103.725 6.12167 103.635 6.4036 103.635 6.75131C103.635 7.09902 103.729 7.47492 103.917 7.87901C104.105 8.28311 104.476 8.74829 105.031 9.27455L107.893 12.0233C108.466 12.5684 108.992 13.1463 109.471 13.7572C109.951 14.3586 110.336 15.0634 110.627 15.8716C110.919 16.6704 111.064 17.6478 111.064 18.8037C111.064 21.1343 110.632 22.9621 109.767 24.2871C108.912 25.6028 107.418 26.2606 105.285 26.2606Z" stroke="black" stroke-width="2" mask="url(#path-1-outside-1_92376_547)"/>
<path d="M119.494 26.0351V1.22554H126.049C127.421 1.22554 128.506 1.53096 129.305 2.1418C130.113 2.75264 130.691 3.62192 131.039 4.74963C131.386 5.87733 131.56 7.22118 131.56 8.78118C131.56 10.2848 131.415 11.5957 131.123 12.7141C130.832 13.823 130.31 14.6828 129.559 15.2937C128.816 15.9045 127.759 16.2099 126.387 16.2099H124.371V26.0351H119.494ZM124.371 11.7555H124.653C125.574 11.7555 126.138 11.4971 126.345 10.9802C126.551 10.4633 126.655 9.70214 126.655 8.6966C126.655 7.75684 126.551 7.03323 126.345 6.52576C126.147 6.0089 125.673 5.75047 124.921 5.75047H124.371V11.7555Z" stroke="black" stroke-width="2" mask="url(#path-1-outside-1_92376_547)"/>
<path d="M133.139 26.0351V1.22554H138.101V21.8062H143.204V26.0351H133.139Z" stroke="black" stroke-width="2" mask="url(#path-1-outside-1_92376_547)"/>
<path d="M143.937 26.0351L146.333 1.22554H154.749L157.103 26.0351H152.409L152.056 22.0317H149.068L148.758 26.0351H143.937ZM149.42 18.0707H151.676L150.59 5.45444H150.365L149.42 18.0707Z" stroke="black" stroke-width="2" mask="url(#path-1-outside-1_92376_547)"/>
<path d="M160.387 26.0351V5.9901H157.441V1.22554H168.295V5.9901H165.349V26.0351H160.387Z" stroke="black" stroke-width="2" mask="url(#path-1-outside-1_92376_547)"/>
<path d="M175.569 26.2606C173.304 26.2606 171.669 25.6968 170.663 24.5691C169.667 23.4414 169.169 21.6464 169.169 19.1843V16.7597H174.075V19.8609C174.075 20.4341 174.159 20.8852 174.329 21.2141C174.507 21.5337 174.813 21.6934 175.245 21.6934C175.696 21.6934 176.006 21.5619 176.175 21.2987C176.354 21.0356 176.443 20.6033 176.443 20.0019C176.443 19.2407 176.368 18.6063 176.217 18.0989C176.067 17.582 175.804 17.0933 175.428 16.6328C175.062 16.163 174.549 15.6179 173.892 14.9977L171.664 12.8832C170.001 11.3138 169.169 9.51889 169.169 7.49841C169.169 5.38396 169.658 3.77228 170.635 2.66337C171.622 1.55446 173.046 1 174.906 1C177.181 1 178.792 1.60614 179.742 2.81843C180.7 4.03071 181.179 5.87263 181.179 8.34419H176.133V6.63853C176.133 6.30022 176.034 6.03709 175.837 5.84914C175.649 5.66119 175.39 5.56721 175.062 5.56721C174.667 5.56721 174.376 5.67998 174.188 5.90553C174.009 6.12167 173.92 6.4036 173.92 6.75131C173.92 7.09902 174.014 7.47492 174.202 7.87901C174.39 8.28311 174.761 8.74829 175.315 9.27455L178.177 12.0233C178.75 12.5684 179.276 13.1463 179.756 13.7572C180.235 14.3586 180.62 15.0634 180.912 15.8716C181.203 16.6704 181.349 17.6478 181.349 18.8037C181.349 21.1343 180.916 22.9621 180.052 24.2871C179.196 25.6028 177.702 26.2606 175.569 26.2606Z" stroke="black" stroke-width="2" mask="url(#path-1-outside-1_92376_547)"/>
<path d="M208 15.4096C208 21.2779 203.063 26.0351 196.973 26.0351C190.884 26.0351 185.947 21.2779 185.947 15.4096C185.947 9.54129 190.884 4.78409 196.973 4.78409C203.063 4.78409 208 9.54129 208 15.4096Z" fill="white"/>
<path fill-rule="evenodd" clip-rule="evenodd" d="M196.973 24.4312C202.234 24.4312 206.396 20.3366 206.396 15.4096C206.396 10.4825 202.234 6.38794 196.973 6.38794C191.713 6.38794 187.551 10.4825 187.551 15.4096C187.551 20.3366 191.713 24.4312 196.973 24.4312ZM196.973 26.0351C203.063 26.0351 208 21.2779 208 15.4096C208 9.54129 203.063 4.78409 196.973 4.78409C190.884 4.78409 185.947 9.54129 185.947 15.4096C185.947 21.2779 190.884 26.0351 196.973 26.0351Z" fill="black"/>
<path d="M204.391 15.4096C204.391 19.5063 201.07 22.8274 196.973 22.8274C192.877 22.8274 189.556 19.5063 189.556 15.4096C189.556 11.3129 192.877 7.99179 196.973 7.99179C201.07 7.99179 204.391 11.3129 204.391 15.4096Z" fill="white"/>
<path fill-rule="evenodd" clip-rule="evenodd" d="M196.973 21.2236C200.184 21.2236 202.787 18.6206 202.787 15.4096C202.787 12.1986 200.184 9.59564 196.973 9.59564C193.763 9.59564 191.16 12.1986 191.16 15.4096C191.16 18.6206 193.763 21.2236 196.973 21.2236ZM196.973 22.8274C201.07 22.8274 204.391 19.5063 204.391 15.4096C204.391 11.3129 201.07 7.99179 196.973 7.99179C192.877 7.99179 189.556 11.3129 189.556 15.4096C189.556 19.5063 192.877 22.8274 196.973 22.8274Z" fill="black"/>
</svg>
